<svg xmlns="http://www.w3.org/2000/svg" xmlns:xlink="http://www.w3.org/1999/xlink" width="500" zoomAndPan="magnify" viewBox="0 0 375 374.999991" height="500" preserveAspectRatio="xMidYMid meet" version="1.0"><defs><filter x="0%" y="0%" width="100%" height="100%" id="0c12a514e8"><feColorMatrix values="0 0 0 0 1 0 0 0 0 1 0 0 0 0 1 0 0 0 1 0" color-interpolation-filters="sRGB"/></filter><g/><clipPath id="52b5bfbc19"><path d="M 53.265625 11.113281 L 321.765625 11.113281 L 321.765625 336.613281 L 53.265625 336.613281 Z M 53.265625 11.113281 " clip-rule="nonzero"/></clipPath><mask id="66d250b9bb"><g filter="url(#0c12a514e8)"><rect x="-37.5" width="450" fill="#000000" y="-37.499999" height="449.999989" fill-opacity="0.498"/></g></mask><clipPath id="52c061e513"><path d="M 1 0 L 100.71875 0 L 100.71875 179.761719 L 1 179.761719 Z M 1 0 " clip-rule="nonzero"/></clipPath><clipPath id="1ab993a4f5"><rect x="0" width="101" y="0" height="180"/></clipPath><clipPath id="42e19831a6"><path d="M 2.253906 266.632812 L 372.746094 266.632812 L 372.746094 361.632812 L 2.253906 361.632812 Z M 2.253906 266.632812 " clip-rule="nonzero"/></clipPath><clipPath id="a3c65da93c"><path d="M 0 264.378906 L 375 264.378906 L 375 268.886719 L 0 268.886719 Z M 370.492188 268.886719 L 375 268.886719 L 375 359.375 L 370.492188 359.375 Z M 0 268.886719 L 4.507812 268.886719 L 4.507812 359.375 L 0 359.375 Z M 0 359.375 L 375 359.375 L 375 363.886719 L 0 363.886719 Z M 0 359.375 " clip-rule="nonzero"/></clipPath></defs><g clip-path="url(#52b5bfbc19)"><path fill="#ffffff" d="M 320.035156 256.949219 C 316.511719 225.859375 307.183594 195.1875 293.765625 170.589844 C 284.644531 153.871094 274.4375 141.121094 264.117188 133.355469 C 269.898438 122.554688 269.40625 112.519531 267.460938 105.171875 L 267.25 104.378906 C 262.347656 85.804688 255.347656 65.753906 240.59375 57.828125 C 231.226562 52.800781 214.53125 51.007812 202.035156 51.007812 C 173.132812 51.007812 166.851562 59.292969 164.789062 62.015625 L 164.75 62.066406 C 150.417969 81.191406 138.828125 113.371094 144.402344 137.875 C 145.371094 142.125 147.4375 146.136719 150.644531 149.957031 C 144.925781 154.484375 140.023438 159.886719 136.21875 164.710938 L 133.601562 162.609375 L 126.71875 146.640625 L 88.160156 125.109375 L 87.097656 142.070312 C 86.019531 141.765625 84.902344 141.550781 83.765625 141.4375 C 81.3125 140.121094 78.757812 139.460938 76.117188 139.460938 C 74.941406 139.460938 73.769531 139.597656 72.632812 139.867188 L 62.5 142.28125 L 62.972656 146.527344 L 58.960938 147.480469 L 59.851562 155.519531 L 53.488281 156.347656 L 71.984375 191.011719 L 92.292969 191.011719 L 94.261719 197.59375 L 85.292969 227.128906 L 108.332031 336.613281 L 178.679688 301.648438 L 188.265625 270.070312 L 321.523438 270.070312 Z M 103.007812 118.972656 C 116.746094 118.972656 129.464844 109.203125 133.25 95.75 C 133.855469 93.601562 134.207031 91.304688 134.300781 88.925781 C 134.824219 75.78125 127.421875 63.234375 125.140625 59.703125 C 122.304688 55.3125 120.972656 50.910156 119.398438 45.171875 L 110.0625 11.113281 L 97.082031 43.957031 C 96.984375 44.203125 96.890625 44.449219 96.796875 44.691406 L 86.335938 31.875 L 83.964844 61.035156 C 83.84375 62.484375 82.1875 64.746094 80.429688 67.144531 C 76.921875 71.925781 72.121094 78.476562 72.332031 88 C 72.71875 105.367188 86.191406 118.972656 103.007812 118.972656 Z M 103.007812 118.972656 " fill-opacity="1" fill-rule="nonzero"/></g><path fill="#00bd82" d="M 299.742188 207.488281 C 291.78125 182.636719 278.089844 161.921875 267.902344 147.902344 C 257.710938 133.882812 251.023438 139.9375 251.023438 139.9375 C 251.023438 139.9375 255.484375 134.519531 259.621094 124.960938 C 263.761719 115.402344 245.929688 73.019531 240.515625 66.75 C 235.105469 60.484375 192.117188 54.859375 174.601562 64.070312 C 157.089844 73.285156 152.632812 128.148438 153.585938 134.75 C 154.542969 141.351562 163.140625 152.046875 163.140625 152.046875 L 137.347656 175.996094 L 127.476562 168.617188 L 107.105469 203.898438 L 106.550781 202.042969 L 104.75 207.972656 L 94.359375 225.972656 L 116.011719 323.476562 L 173.011719 295.117188 L 185.109375 261.660156 L 312.796875 263.203125 C 312.800781 263.203125 307.703125 232.34375 299.742188 207.488281 Z M 131.34375 292.558594 C 130.3125 296.433594 129.390625 299.648438 128.738281 301.894531 C 128.082031 304.144531 127.679688 305.421875 127.679688 305.421875 C 127.679688 305.421875 127.863281 304.09375 128.242188 301.78125 C 128.621094 299.472656 129.175781 296.175781 129.917969 292.234375 C 130.28125 290.261719 130.679688 288.128906 131.132812 285.878906 C 131.578125 283.625 132.039062 281.246094 132.5625 278.796875 C 133.085938 276.351562 133.582031 273.808594 134.164062 271.246094 C 134.730469 268.679688 135.308594 266.070312 135.882812 263.460938 C 136.488281 260.859375 137.09375 258.257812 137.6875 255.699219 C 138.273438 253.136719 138.914062 250.628906 139.5 248.195312 C 140.085938 245.757812 140.695312 243.414062 141.265625 241.191406 C 141.824219 238.964844 142.386719 236.867188 142.910156 234.929688 C 143.941406 231.054688 144.859375 227.839844 145.511719 225.59375 C 145.832031 224.46875 146.113281 223.589844 146.289062 222.988281 C 146.472656 222.386719 146.570312 222.066406 146.570312 222.066406 C 146.570312 222.066406 146.519531 222.398438 146.425781 223.019531 C 146.324219 223.640625 146.199219 224.550781 146.003906 225.707031 C 145.625 228.015625 145.066406 231.3125 144.328125 235.253906 C 143.960938 237.222656 143.566406 239.359375 143.113281 241.609375 C 142.664062 243.863281 142.207031 246.242188 141.683594 248.6875 C 141.160156 251.136719 140.660156 253.675781 140.082031 256.242188 C 139.515625 258.808594 138.941406 261.417969 138.363281 264.027344 C 137.761719 266.628906 137.15625 269.226562 136.5625 271.789062 C 135.980469 274.355469 135.335938 276.859375 134.75 279.296875 C 134.164062 281.730469 133.554688 284.074219 132.988281 286.300781 C 132.425781 288.523438 131.863281 290.621094 131.34375 292.558594 Z M 210.105469 175.128906 L 185.269531 217.527344 C 185.269531 217.527344 166.132812 164.160156 166.753906 161.90625 C 167.515625 159.132812 173.488281 142.484375 173.488281 142.484375 L 167.175781 142.457031 L 177.308594 120.347656 L 181.449219 115.878906 L 193.070312 118.972656 L 208.992188 142.964844 L 205.886719 143.125 L 207.378906 154.445312 L 207.386719 158.355469 C 207.546875 158.296875 207.710938 158.234375 207.871094 158.175781 Z M 160.824219 122.726562 C 160.734375 123.414062 160.679688 123.957031 160.644531 124.328125 C 160.601562 124.699219 160.578125 124.894531 160.578125 124.894531 C 160.578125 124.894531 160.550781 124.699219 160.496094 124.328125 C 160.453125 123.960938 160.359375 123.414062 160.316406 122.714844 C 160.253906 122.019531 160.210938 121.167969 160.195312 120.191406 C 160.195312 119.703125 160.199219 119.183594 160.199219 118.636719 C 160.214844 118.089844 160.253906 117.515625 160.277344 116.914062 C 160.324219 116.3125 160.371094 115.6875 160.421875 115.042969 C 160.492188 114.398438 160.566406 113.730469 160.660156 113.050781 C 160.851562 111.6875 161.066406 110.246094 161.386719 108.777344 C 161.695312 107.308594 162.035156 105.792969 162.453125 104.269531 C 162.875 102.75 163.34375 101.21875 163.867188 99.703125 C 164.390625 98.1875 164.953125 96.6875 165.574219 95.230469 C 166.167969 93.769531 166.863281 92.375 167.523438 91.023438 C 168.203125 89.675781 168.914062 88.40625 169.644531 87.230469 C 170.355469 86.042969 171.109375 84.96875 171.835938 84.003906 C 172.5625 83.035156 173.289062 82.191406 173.976562 81.484375 C 174.652344 80.765625 175.3125 80.207031 175.863281 79.769531 C 176.425781 79.335938 176.890625 79.027344 177.21875 78.859375 C 177.546875 78.679688 177.722656 78.582031 177.722656 78.582031 C 177.722656 78.582031 177.574219 78.71875 177.304688 78.976562 C 177.015625 79.21875 176.664062 79.632812 176.210938 80.136719 C 175.769531 80.660156 175.265625 81.320312 174.730469 82.101562 C 174.460938 82.492188 174.179688 82.910156 173.910156 83.371094 C 173.625 83.820312 173.34375 84.304688 173.050781 84.808594 C 172.476562 85.824219 171.894531 86.949219 171.304688 88.148438 C 170.703125 89.34375 170.152344 90.648438 169.546875 91.976562 C 168.40625 94.667969 167.28125 97.578125 166.273438 100.535156 C 165.75 102.003906 165.292969 103.496094 164.828125 104.960938 C 164.394531 106.4375 163.933594 107.878906 163.570312 109.296875 C 163.195312 110.714844 162.84375 112.085938 162.53125 113.394531 C 162.234375 114.707031 161.964844 115.949219 161.730469 117.101562 C 161.515625 118.253906 161.320312 119.316406 161.167969 120.265625 C 161.035156 121.210938 160.898438 122.039062 160.824219 122.726562 Z M 196.148438 75.433594 C 199.492188 76.730469 198.222656 81.433594 194.667969 80.804688 C 187.199219 79.488281 183.558594 87.339844 183.644531 93.839844 C 183.691406 97.308594 178.476562 97.261719 178.296875 93.839844 C 177.816406 84.699219 185.125 71.160156 196.148438 75.433594 Z M 196.148438 75.433594 " fill-opacity="1" fill-rule="nonzero"/><path fill="#003024" d="M 115.515625 232.0625 C 117.605469 246.292969 121.636719 273.824219 123.035156 283.859375 L 116.738281 313.15625 L 116.734375 313.160156 L 116.109375 310.191406 L 116.109375 310.183594 L 109.488281 211.875 Z M 169.074219 207.308594 L 138.859375 183.890625 L 127.550781 175.128906 L 141.710938 207.988281 C 141.816406 208.230469 141.839844 208.5 141.785156 208.757812 C 141.785156 208.757812 141.785156 208.757812 141.785156 208.761719 L 141.597656 209.644531 C 146.871094 211.808594 155.375 215.359375 156.085938 216.066406 C 156.511719 216.496094 156.140625 218.714844 156.128906 219.320312 C 155.921875 228.746094 146.796875 290.65625 144.835938 303.882812 C 144.742188 304.507812 144.667969 305.023438 144.609375 305.421875 L 168.882812 293.355469 L 168.890625 293.332031 L 168.882812 293.355469 L 160.792969 296.96875 L 160.847656 295.925781 L 164.707031 222.070312 L 174.578125 274.597656 L 179.367188 258.824219 C 179.351562 258.65625 179.335938 258.488281 179.324219 258.316406 Z M 222.25 137.367188 C 217.875 143.09375 212.878906 148.464844 207.378906 153.257812 L 207.386719 158.355469 C 225.984375 151.503906 261.773438 134.679688 254.839844 108.519531 L 254.625 107.714844 C 252.3125 98.945312 246.164062 75.644531 234.417969 69.339844 C 233.773438 68.996094 233.039062 68.660156 232.230469 68.34375 C 234.820312 75.035156 236.679688 81.972656 237.351562 89.171875 C 238.195312 98.175781 237.304688 107.210938 234.242188 115.75 C 231.449219 123.542969 227.265625 130.800781 222.25 137.367188 Z M 210.484375 133.730469 C 210.625 133.484375 210.757812 133.230469 210.894531 132.980469 C 210.992188 132.796875 211.09375 132.617188 211.1875 132.429688 C 213.164062 128.605469 214.644531 124.0625 215.542969 119.230469 L 207.335938 130.972656 L 207.351562 138.207031 L 207.445312 138.351562 C 208.289062 137.160156 209.050781 136.046875 209.667969 135.078125 C 209.949219 134.640625 210.21875 134.191406 210.484375 133.730469 Z M 169.84375 135.691406 C 169.535156 134.949219 169.300781 134.121094 169.15625 133.191406 C 169.152344 133.171875 169.148438 133.152344 169.144531 133.128906 C 169.136719 133.097656 169.136719 133.0625 169.132812 133.027344 C 168.902344 131.449219 168.921875 129.578125 169.230469 127.332031 C 169.328125 126.632812 169.972656 126.140625 170.667969 126.242188 C 170.929688 126.28125 171.164062 126.394531 171.347656 126.558594 C 171.648438 126.832031 171.816406 127.246094 171.757812 127.683594 C 171.558594 129.125 171.480469 130.363281 171.519531 131.445312 L 176.226562 119.507812 C 175.898438 117.707031 175.613281 115.90625 175.402344 114.195312 L 169.128906 112.164062 L 176.980469 102.144531 L 175.21875 96.625 L 175.21875 96.429688 C 173.769531 98.355469 172.417969 100.34375 171.195312 102.355469 C 167.078125 109.136719 164.890625 116.941406 164.71875 124.871094 C 164.589844 130.914062 165.46875 136.816406 167.179688 142.457031 Z M 169.605469 149.070312 L 171.230469 144.015625 L 167.671875 144.015625 C 168.242188 145.726562 168.890625 147.414062 169.605469 149.070312 Z M 187.566406 101.105469 L 194.691406 101.105469 C 192.46875 100.21875 190.539062 99.023438 190.695312 98.980469 C 193.640625 98.1875 197.4375 96.027344 201.5625 97.222656 L 198.410156 95.367188 L 186.292969 98.980469 L 186.148438 98.6875 C 186.464844 99.839844 186.84375 101.167969 187.085938 102.003906 C 187.367188 101.460938 187.566406 101.105469 187.566406 101.105469 Z M 199.441406 102.433594 C 198.65625 103.507812 197.402344 104.933594 195.882812 105.570312 C 193.273438 106.667969 188.847656 106.53125 186.453125 106.449219 C 186.105469 107.789062 185.730469 109.058594 185.5 109.351562 C 188.191406 109.300781 190.933594 108.835938 193.460938 107.957031 C 196.050781 107.054688 199.246094 105.410156 199.441406 102.433594 Z M 181.445312 125.890625 L 181.351562 126.566406 L 186.625 126.839844 L 186.246094 125.742188 Z M 204.792969 134.308594 L 204.796875 134.308594 L 204.789062 130.171875 L 213.355469 117.914062 L 216.351562 113.625 L 216.355469 113.585938 L 216.371094 113.414062 C 214.546875 115.011719 212.71875 116.601562 210.855469 118.144531 C 207.699219 120.765625 204.433594 123.3125 201.585938 126.277344 C 201.175781 126.703125 200.777344 127.136719 200.382812 127.578125 Z M 260.226562 257.007812 L 270.117188 214.683594 L 248.6875 257.007812 L 213.585938 257.007812 C 217.828125 254.542969 227.460938 248.761719 236.613281 241.929688 C 236.402344 241.859375 236.195312 241.792969 235.976562 241.726562 C 211.65625 233.546875 198.035156 223.925781 188.710938 214.78125 L 189.027344 214.371094 L 216.828125 178.503906 L 212.941406 164.535156 C 212.941406 164.535156 252.675781 153.898438 255.074219 142.945312 C 264.136719 149.363281 273.855469 161.355469 282.308594 176.847656 C 285.242188 182.226562 287.957031 187.925781 290.457031 193.863281 C 285.34375 195.660156 265.203125 203.179688 251.121094 214.683594 C 234.875 227.957031 211.636719 222.070312 211.636719 222.070312 L 211.636719 223.289062 C 211.636719 223.289062 237.429688 234.585938 255.578125 222.070312 C 271.15625 211.324219 290.617188 208.585938 295.828125 208.023438 C 301.089844 223.5 304.890625 240.15625 306.894531 257.007812 Z M 195.644531 208.609375 C 210.164062 222.480469 276.484375 211.777344 262.582031 164.167969 C 251.910156 172.597656 229.882812 175.320312 220.285156 173.835938 C 220.410156 175.90625 221.488281 188.605469 221.738281 188.84375 C 221.136719 189.128906 205.546875 201.027344 195.644531 208.609375 Z M 163.808594 187.988281 C 169.511719 191.933594 173.617188 197.300781 178.527344 203.351562 L 172 184.789062 C 151.625 168.339844 144.023438 178.199219 144.023438 178.199219 C 144.023438 178.199219 146.808594 176.226562 163.808594 187.988281 Z M 163.808594 187.988281 " fill-opacity="1" fill-rule="nonzero"/><path fill="#00ffb0" d="M 216.800781 102.050781 C 215.949219 94.765625 213.648438 88.429688 210.132812 83.691406 C 210.046875 83.582031 209.964844 83.472656 209.882812 83.363281 C 209.632812 83.042969 209.382812 82.730469 209.125 82.425781 L 208.785156 82.042969 C 208.652344 81.886719 208.515625 81.730469 208.34375 81.546875 C 208.238281 81.429688 208.128906 81.316406 208.015625 81.199219 C 207.914062 81.09375 207.808594 80.996094 207.707031 80.894531 L 207.398438 80.597656 C 207.230469 80.433594 207.0625 80.269531 206.890625 80.113281 L 206.753906 79.988281 C 206.613281 79.863281 206.46875 79.746094 206.324219 79.632812 L 205.9375 79.316406 C 205.761719 79.167969 205.589844 79.023438 205.363281 78.855469 L 205.289062 78.796875 C 205.136719 78.683594 204.976562 78.574219 204.820312 78.46875 L 204.433594 78.207031 C 204.261719 78.085938 204.089844 77.96875 203.914062 77.855469 L 203.714844 77.726562 C 203.550781 77.628906 203.386719 77.535156 203.21875 77.445312 L 202.847656 77.234375 C 202.6875 77.144531 202.53125 77.054688 202.367188 76.96875 L 202.105469 76.832031 L 202.023438 76.816406 C 199.855469 76.351562 197.566406 76.117188 195.21875 76.117188 C 196.019531 76.234375 196.804688 76.480469 197.570312 76.839844 C 195.398438 76.6875 193.15625 76.742188 190.886719 77.015625 C 189.449219 77.191406 188.171875 77.5625 187.035156 78.074219 C 188.363281 77.316406 189.796875 76.695312 191.261719 76.34375 C 191.113281 76.359375 190.960938 76.363281 190.808594 76.382812 C 177.867188 77.945312 177.171875 94.355469 177.132812 96.21875 L 177.132812 96.324219 L 178.640625 101.058594 L 180.183594 99.085938 L 181.1875 99.875 L 172.324219 111.1875 L 179.125 113.390625 L 178.730469 114.605469 L 177.296875 114.140625 L 177.441406 115.152344 C 177.527344 115.75 177.621094 116.359375 177.722656 116.972656 L 177.902344 118.058594 L 181.292969 115.292969 L 193.867188 118.789062 L 195.8125 121.761719 L 198.058594 115.566406 L 213.757812 106.101562 L 216.835938 102.316406 Z M 188.820312 78.878906 C 189.164062 78.765625 189.503906 78.671875 189.835938 78.578125 C 190.488281 78.371094 191.140625 78.324219 191.722656 78.246094 C 192.300781 78.15625 192.851562 78.230469 193.320312 78.226562 C 193.789062 78.21875 194.199219 78.3125 194.53125 78.367188 C 195.195312 78.488281 195.558594 78.589844 195.558594 78.589844 C 195.558594 78.589844 195.183594 78.710938 194.554688 78.875 C 194.238281 78.957031 193.855469 79.042969 193.4375 79.195312 C 193.226562 79.265625 193.003906 79.339844 192.769531 79.421875 C 192.535156 79.492188 192.289062 79.566406 192.046875 79.6875 C 191.558594 79.90625 191.019531 80.074219 190.5 80.378906 C 190.238281 80.523438 189.960938 80.640625 189.691406 80.796875 C 189.433594 80.96875 189.164062 81.128906 188.894531 81.296875 C 188.617188 81.453125 188.367188 81.660156 188.105469 81.855469 C 187.847656 82.058594 187.566406 82.226562 187.328125 82.460938 C 187.078125 82.683594 186.832031 82.910156 186.574219 83.121094 L 185.875 83.851562 C 185.621094 84.078125 185.425781 84.363281 185.207031 84.617188 C 184.988281 84.878906 184.761719 85.128906 184.578125 85.414062 C 184.386719 85.691406 184.175781 85.953125 183.988281 86.226562 C 183.816406 86.511719 183.640625 86.789062 183.460938 87.0625 C 183.269531 87.328125 183.144531 87.628906 182.980469 87.898438 C 182.828125 88.175781 182.660156 88.4375 182.539062 88.714844 C 182.273438 89.261719 181.996094 89.777344 181.796875 90.277344 C 181.6875 90.527344 181.578125 90.765625 181.476562 90.988281 C 181.386719 91.21875 181.300781 91.4375 181.21875 91.640625 C 181.0625 92.054688 180.894531 92.421875 180.800781 92.742188 C 180.582031 93.367188 180.429688 93.722656 180.429688 93.722656 C 180.429688 93.722656 180.363281 93.34375 180.300781 92.679688 C 180.257812 92.351562 180.246094 91.945312 180.265625 91.472656 C 180.269531 91.234375 180.277344 90.980469 180.285156 90.710938 C 180.308594 90.449219 180.347656 90.175781 180.382812 89.882812 C 180.441406 89.300781 180.589844 88.6875 180.753906 88.035156 C 180.820312 87.699219 180.957031 87.382812 181.066406 87.046875 C 181.1875 86.710938 181.292969 86.363281 181.460938 86.03125 C 181.613281 85.691406 181.78125 85.351562 181.949219 85.007812 C 182.128906 84.671875 182.339844 84.34375 182.546875 84.007812 C 182.746094 83.671875 182.984375 83.351562 183.234375 83.039062 C 183.488281 82.730469 183.714844 82.398438 184.007812 82.117188 L 184.863281 81.265625 C 185.171875 81.007812 185.488281 80.761719 185.800781 80.515625 C 186.101562 80.253906 186.457031 80.070312 186.789062 79.867188 C 187.125 79.667969 187.445312 79.453125 187.800781 79.320312 C 188.148438 79.167969 188.484375 79.015625 188.820312 78.878906 Z M 97.273438 90.527344 C 99.121094 87.136719 102.785156 85.269531 104.605469 81.847656 C 104.925781 88.429688 110.695312 86.867188 111.96875 92.058594 C 113.242188 97.25 108.625 103.4375 102.757812 101.988281 C 96.890625 100.535156 95.917969 93.015625 97.273438 90.527344 Z M 101.003906 144.960938 C 99.652344 141.96875 95.261719 144.566406 96.601562 147.535156 C 97.695312 149.957031 101.46875 154.835938 101.710938 155.230469 C 101.597656 155.324219 97.539062 158.882812 97.351562 159.449219 C 96.902344 159.144531 96.371094 158.957031 95.832031 158.921875 C 93.144531 157.484375 89.828125 157.515625 87.472656 155.65625 C 85.433594 154.050781 83.625 152.367188 81.292969 151.167969 C 77.257812 149.09375 73.523438 150.871094 71.828125 154.917969 C 69.558594 160.339844 69.242188 166.765625 72.050781 171.976562 C 74.507812 176.535156 77.238281 180.695312 82.75 181.179688 C 85.984375 181.460938 89.351562 180.664062 92.539062 180.238281 C 95.734375 179.8125 100.617188 180.585938 100.714844 180.554688 L 127.621094 268.660156 L 140.992188 208.4375 L 117.269531 152.992188 C 117.269531 152.992188 101.574219 146.226562 101.003906 144.960938 Z M 121.164062 172.699219 C 121.398438 173.597656 121.625 174.503906 121.808594 175.421875 C 122.011719 176.332031 122.179688 177.257812 122.304688 178.199219 C 121.78125 177.410156 121.296875 176.601562 120.851562 175.78125 C 120.386719 174.964844 119.964844 174.136719 119.546875 173.304688 C 118.722656 171.636719 117.96875 169.945312 117.261719 168.234375 C 115.894531 164.886719 114.699219 161.476562 113.734375 157.976562 C 113 157.503906 112.269531 157.023438 111.558594 156.507812 C 111.140625 156.207031 110.722656 155.914062 110.316406 155.597656 C 109.90625 155.285156 109.5 154.96875 109.101562 154.628906 C 109.609375 154.753906 110.105469 154.898438 110.59375 155.050781 C 111.089844 155.191406 111.574219 155.363281 112.058594 155.527344 C 113.03125 155.847656 113.984375 156.214844 114.929688 156.589844 L 115.179688 156.6875 L 115.367188 157.082031 C 116.988281 160.429688 118.363281 163.867188 119.558594 167.371094 C 120.148438 169.125 120.691406 170.898438 121.164062 172.699219 Z M 186.246094 125.742188 L 186.625 126.84375 L 181.351562 126.566406 L 181.445312 125.890625 Z M 186.246094 125.742188 " fill-opacity="1" fill-rule="nonzero"/><g mask="url(#66d250b9bb)"><g transform="matrix(1, 0, 0, 1, 116, 84)"><g clip-path="url(#1ab993a4f5)"><g clip-path="url(#52c061e513)"><path fill="#003024" d="M 100.167969 18.125 L 99.566406 18.863281 L 97.332031 21.613281 L 79.648438 36.347656 L 78.269531 34.242188 L 75.101562 33.359375 C 75.535156 32.125 75.996094 30.902344 76.625 29.746094 C 78.050781 27.121094 81.230469 25.945312 83.734375 24.636719 C 87.671875 22.582031 91.863281 21.191406 95.292969 18.46875 C 96.101562 12.253906 95.761719 5.914062 93.636719 0.0976562 C 97.289062 5.011719 99.382812 11.382812 100.167969 18.125 Z M 7.785156 114.636719 C 6.757812 123.796875 4.820312 132.828125 2.300781 141.6875 C 1.976562 142.832031 1.632812 143.972656 1.296875 145.117188 L 11.476562 179.203125 L 23.210938 124.625 L 9.476562 92.753906 C 9.191406 100.039062 8.59375 107.398438 7.785156 114.636719 Z M 88.8125 60.015625 L 83.242188 60.015625 C 83.550781 65.753906 82.765625 71.527344 81.152344 77.078125 C 77.417969 89.90625 70.3125 101.324219 62.738281 112.273438 L 69.417969 131.273438 L 88.871094 91.164062 Z M 88.8125 60.015625 " fill-opacity="1" fill-rule="nonzero"/></g></g></g></g><path fill="#000e0a" d="M 103.007812 113.875 C 114.511719 113.875 125.167969 105.667969 128.34375 94.367188 C 128.839844 92.601562 129.132812 90.703125 129.210938 88.722656 C 129.671875 77.078125 122.9375 65.683594 120.863281 62.46875 C 117.632812 57.464844 116.179688 52.703125 114.488281 46.519531 L 109.1875 27.191406 L 101.820312 45.832031 C 100.199219 49.933594 99.703125 53.089844 99.566406 56.140625 L 90.390625 44.898438 L 89.042969 61.449219 C 88.804688 64.332031 86.828125 67.03125 84.535156 70.15625 C 81.292969 74.585938 77.253906 80.09375 77.425781 87.882812 C 77.75 102.460938 88.984375 113.875 103.007812 113.875 Z M 90.957031 74.867188 C 93.144531 71.882812 95.394531 68.816406 96.433594 65.109375 C 99.007812 68.964844 100.265625 72.972656 100.355469 77.535156 L 100.378906 78.640625 L 101.476562 78.773438 C 101.609375 78.789062 101.742188 78.796875 101.871094 78.796875 C 107.050781 78.796875 107.496094 66.808594 107.511719 63.132812 C 107.511719 62.132812 107.503906 61.210938 107.496094 60.351562 C 107.464844 57.398438 107.4375 55.238281 107.980469 52.742188 C 109.457031 57.667969 111.152344 62.109375 114.175781 66.792969 C 117.792969 72.394531 121.550781 81.015625 121.257812 88.410156 C 121.203125 89.765625 121.011719 91.042969 120.683594 92.207031 C 118.488281 100.019531 110.886719 105.90625 103.007812 105.90625 C 93.351562 105.90625 85.613281 97.914062 85.386719 87.707031 C 85.273438 82.625 88.035156 78.855469 90.957031 74.867188 Z M 314.972656 257.527344 C 311.523438 227.070312 302.402344 197.066406 289.292969 173.035156 C 279.484375 155.046875 268.148438 141.625 257.238281 134.832031 C 264.710938 123.914062 264.445312 113.691406 262.535156 106.480469 L 262.324219 105.679688 C 259.527344 95.082031 252.972656 70.265625 238.183594 62.324219 C 229.636719 57.734375 213.371094 56.105469 202.03125 56.105469 C 190.003906 56.105469 174.480469 57.667969 168.824219 65.125 C 155.527344 82.867188 144.191406 113.996094 149.371094 136.746094 C 150.484375 141.640625 153.476562 146.246094 158.445312 150.664062 C 149.28125 156.511719 141.707031 165.660156 137.140625 171.996094 L 129.421875 165.789062 L 122.726562 150.246094 L 92.738281 133.507812 L 92.074219 144.105469 C 91.941406 146.242188 92.195312 149.253906 93.246094 152.257812 C 93.195312 152.195312 93.148438 152.136719 93.109375 152.082031 L 93.003906 151.9375 C 90.414062 148.566406 86.519531 146.582031 82.265625 146.445312 C 80.269531 145.179688 78.230469 144.558594 76.117188 144.558594 C 75.339844 144.558594 74.5625 144.648438 73.8125 144.828125 L 68.0625 146.199219 L 68.535156 150.441406 L 64.523438 151.398438 L 65.175781 157.277344 C 65.242188 157.878906 65.367188 158.570312 65.816406 159.886719 L 61.457031 160.453125 L 75.042969 185.910156 L 96.089844 185.910156 L 99.582031 197.605469 L 90.546875 227.359375 L 111.960938 329.117188 L 174.445312 298.0625 L 184.492188 264.972656 L 315.816406 264.972656 Z M 157.132812 134.972656 C 152.65625 115.300781 162.800781 86.441406 175.1875 69.910156 C 177.917969 66.308594 188.207031 64.070312 202.03125 64.070312 C 214.050781 64.070312 225.679688 65.75 232.230469 68.34375 C 233.039062 68.664062 233.773438 68.996094 234.417969 69.339844 C 246.164062 75.648438 252.3125 98.945312 254.625 107.714844 L 254.839844 108.519531 C 261.773438 134.679688 225.984375 151.503906 207.386719 158.355469 L 207.378906 153.257812 L 207.359375 144.015625 L 211.15625 144.015625 L 208.941406 140.636719 C 210.039062 139.117188 211.03125 137.683594 211.816406 136.453125 C 212.117188 135.980469 212.410156 135.496094 212.695312 134.996094 C 212.773438 134.855469 212.851562 134.707031 212.933594 134.5625 C 213.117188 134.230469 213.300781 133.898438 213.476562 133.554688 C 213.617188 133.28125 213.753906 133.003906 213.886719 132.726562 C 213.992188 132.515625 214.09375 132.304688 214.195312 132.089844 C 214.363281 131.730469 214.527344 131.363281 214.691406 130.992188 C 214.742188 130.867188 214.796875 130.746094 214.851562 130.621094 C 215.039062 130.179688 215.21875 129.730469 215.398438 129.277344 C 215.410156 129.242188 215.421875 129.207031 215.4375 129.171875 C 216.402344 126.675781 217.1875 124.007812 217.78125 121.238281 C 217.820312 121.054688 217.863281 120.878906 217.902344 120.695312 C 217.957031 120.425781 218.007812 120.152344 218.058594 119.882812 C 218.144531 119.441406 218.226562 118.996094 218.300781 118.550781 C 218.316406 118.457031 218.332031 118.363281 218.347656 118.269531 C 219.324219 112.316406 219.445312 106.007812 218.519531 100.003906 L 218.441406 99.328125 L 218.414062 99.363281 C 217.9375 96.511719 217.21875 93.742188 216.242188 91.117188 C 216.167969 90.917969 216.09375 90.722656 216.019531 90.527344 C 215.941406 90.328125 215.867188 90.132812 215.789062 89.9375 C 214.109375 85.78125 211.820312 82.253906 209.003906 79.476562 C 208.964844 79.4375 208.925781 79.398438 208.886719 79.363281 C 208.742188 79.222656 208.601562 79.085938 208.453125 78.949219 C 208.335938 78.839844 208.214844 78.730469 208.09375 78.621094 C 208.003906 78.539062 207.914062 78.460938 207.824219 78.382812 C 203.734375 74.820312 197.855469 72.066406 189.554688 72.527344 C 189.519531 72.527344 189.480469 72.53125 189.445312 72.53125 C 189.015625 72.558594 188.574219 72.589844 188.128906 72.632812 C 188.054688 72.640625 187.980469 72.648438 187.90625 72.65625 C 187.503906 72.695312 187.097656 72.746094 186.683594 72.804688 C 186.578125 72.816406 186.46875 72.832031 186.363281 72.847656 C 185.988281 72.902344 185.605469 72.964844 185.222656 73.03125 C 185.082031 73.054688 184.945312 73.078125 184.804688 73.101562 C 184.457031 73.164062 184.105469 73.238281 183.753906 73.3125 C 183.578125 73.351562 183.40625 73.382812 183.226562 73.421875 C 182.921875 73.492188 182.609375 73.570312 182.300781 73.648438 C 182.078125 73.703125 181.855469 73.75 181.628906 73.808594 C 181.417969 73.867188 181.199219 73.929688 180.984375 73.988281 C 180.667969 74.078125 180.351562 74.160156 180.03125 74.253906 C 179.945312 74.28125 179.863281 74.3125 179.789062 74.355469 C 179.265625 74.632812 178.992188 75.25 179.167969 75.839844 C 179.367188 76.515625 180.078125 76.898438 180.75 76.699219 C 180.8125 76.683594 180.871094 76.667969 180.933594 76.648438 C 181.316406 76.539062 181.695312 76.433594 182.074219 76.332031 C 182.273438 76.277344 182.472656 76.230469 182.671875 76.179688 C 182.902344 76.121094 183.132812 76.066406 183.363281 76.011719 C 183.605469 75.957031 183.847656 75.898438 184.089844 75.847656 C 184.222656 75.820312 184.359375 75.792969 184.492188 75.765625 C 185.339844 75.59375 186.175781 75.453125 187 75.34375 C 175.375 79.601562 175.21875 96.242188 175.21875 96.425781 L 175.21875 96.625 L 176.980469 102.144531 L 169.128906 112.164062 L 175.398438 114.195312 C 175.613281 115.910156 175.898438 117.707031 176.226562 119.507812 L 171.519531 131.445312 C 171.480469 130.363281 171.558594 129.125 171.757812 127.683594 C 171.816406 127.246094 171.648438 126.832031 171.34375 126.558594 C 171.160156 126.394531 170.929688 126.28125 170.667969 126.242188 C 169.972656 126.140625 169.328125 126.632812 169.230469 127.332031 C 168.921875 129.582031 168.902344 131.449219 169.128906 133.027344 C 169.132812 133.0625 169.136719 133.097656 169.140625 133.128906 C 169.144531 133.152344 169.148438 133.171875 169.152344 133.191406 C 169.300781 134.121094 169.53125 134.949219 169.84375 135.691406 L 167.175781 142.457031 L 166.5625 144.015625 L 171.226562 144.015625 L 169.605469 149.070312 L 169.582031 149.140625 C 163.417969 145.097656 158.339844 140.28125 157.132812 134.972656 Z M 187.523438 129.441406 L 192.558594 144.015625 L 204.8125 144.015625 L 204.871094 175.164062 L 185.417969 215.273438 L 178.738281 196.273438 L 167.445312 164.144531 L 173.90625 144.015625 L 178.925781 144.015625 L 181 129.101562 Z M 181.351562 126.566406 L 181.445312 125.890625 L 186.246094 125.742188 L 186.625 126.84375 Z M 194.371094 141.46875 L 188.039062 123.136719 L 179.214844 123.410156 L 176.707031 141.46875 L 170.304688 141.46875 L 178.878906 119.726562 L 181.730469 117.398438 L 192.660156 120.441406 L 206.4375 141.46875 Z M 173.382812 110.863281 L 182.078125 99.765625 L 180.074219 98.191406 L 178.878906 99.71875 L 177.769531 96.234375 C 177.808594 94.203125 178.519531 78.511719 190.882812 77.015625 C 194.699219 76.558594 198.4375 76.703125 201.890625 77.4375 C 201.953125 77.46875 202.011719 77.503906 202.074219 77.535156 C 202.28125 77.644531 202.484375 77.765625 202.6875 77.878906 C 202.917969 78.007812 203.152344 78.132812 203.378906 78.269531 C 203.441406 78.3125 203.507812 78.355469 203.570312 78.394531 C 203.796875 78.539062 204.019531 78.695312 204.238281 78.847656 C 204.460938 79.003906 204.691406 79.148438 204.910156 79.308594 C 204.945312 79.339844 204.984375 79.371094 205.023438 79.398438 C 205.257812 79.574219 205.480469 79.769531 205.710938 79.957031 C 205.917969 80.125 206.128906 80.289062 206.328125 80.464844 C 206.375 80.503906 206.417969 80.546875 206.460938 80.585938 C 206.679688 80.785156 206.890625 80.996094 207.101562 81.203125 C 207.253906 81.351562 207.410156 81.492188 207.558594 81.644531 C 207.675781 81.765625 207.792969 81.894531 207.910156 82.019531 C 208.082031 82.199219 208.242188 82.390625 208.410156 82.578125 C 208.484375 82.667969 208.5625 82.75 208.636719 82.839844 C 208.886719 83.136719 209.132812 83.4375 209.375 83.75 C 209.457031 83.859375 209.539062 83.96875 209.621094 84.074219 C 209.625 84.082031 209.632812 84.089844 209.636719 84.097656 C 213.289062 89.011719 215.378906 95.382812 216.167969 102.125 L 215.566406 102.863281 L 213.332031 105.613281 L 197.535156 115.136719 L 195.644531 120.347656 L 194.265625 118.242188 L 191.097656 117.359375 L 181.144531 114.589844 L 178.351562 116.871094 C 178.25 116.257812 178.15625 115.65625 178.070312 115.0625 L 179.140625 115.40625 L 179.925781 112.980469 Z M 204.792969 134.308594 L 200.382812 127.578125 L 197.390625 123.007812 L 199.621094 116.855469 L 215.027344 107.566406 L 215.167969 107.394531 L 215.171875 107.394531 L 216.5 105.757812 C 216.507812 105.882812 216.511719 106.007812 216.519531 106.132812 L 216.4375 112.574219 L 216.371094 113.414062 L 216.355469 113.585938 L 216.351562 113.625 L 213.355469 117.914062 L 204.789062 130.171875 Z M 215.542969 119.230469 C 214.644531 124.0625 213.164062 128.605469 211.1875 132.433594 C 211.089844 132.617188 210.992188 132.796875 210.894531 132.980469 C 210.757812 133.234375 210.621094 133.484375 210.484375 133.730469 C 210.21875 134.191406 209.949219 134.640625 209.667969 135.078125 C 209.050781 136.050781 208.289062 137.164062 207.445312 138.351562 L 207.351562 138.207031 L 207.335938 130.972656 Z M 86.671875 156.765625 C 87.75 158.25 90.066406 160.648438 90.164062 160.75 C 90.398438 160.992188 90.71875 161.132812 91.058594 161.136719 L 95.277344 161.207031 L 94.648438 162.277344 L 88.097656 162.277344 C 87.34375 160.800781 85.644531 157.675781 83.460938 154.945312 L 83.285156 154.578125 C 84.335938 154.824219 85.632812 155.414062 86.671875 156.765625 Z M 86.160156 164.105469 L 86.507812 164.828125 L 93.144531 164.828125 L 91.855469 167.011719 L 84.101562 167.011719 C 83.546875 165.929688 82.480469 163.957031 81.085938 161.929688 C 78.746094 156.84375 77.625 154.140625 77.097656 152.710938 C 80.347656 153.914062 84.449219 160.550781 86.160156 164.105469 Z M 82.164062 168.839844 L 82.511719 169.5625 L 90.355469 169.5625 L 88.65625 172.441406 L 82.46875 172.441406 C 81.757812 171.359375 80.230469 169.050781 79.414062 167.925781 C 78.644531 166.925781 77.78125 166.21875 76.917969 165.71875 C 75.027344 161.570312 74.0625 159.246094 73.574219 157.949219 C 76.433594 159.113281 80.121094 164.597656 82.164062 168.839844 Z M 79.8125 177.945312 L 74.128906 167.296875 C 75.152344 167.5625 76.382812 168.160156 77.375 169.449219 C 78.382812 170.839844 80.691406 174.378906 80.714844 174.414062 L 81.089844 174.992188 L 90.113281 174.992188 L 97.289062 162.816406 C 98.414062 164.847656 100.570312 167.691406 104.394531 169.445312 L 105.457031 167.128906 C 102.082031 165.578125 100.246094 162.960938 99.359375 161.277344 L 101.820312 161.320312 C 102.3125 161.347656 102.765625 161.050781 102.984375 160.609375 L 105.234375 156.0625 C 105.382812 155.757812 105.40625 155.402344 105.296875 155.082031 C 105.183594 154.757812 104.949219 154.496094 104.640625 154.347656 C 101.574219 152.882812 100.449219 149.289062 100.121094 146.75 L 116.484375 155.886719 L 125.476562 176.753906 L 139.210938 208.625 L 127.476562 263.207031 L 117.296875 229.117188 L 102.015625 177.945312 Z M 116.109375 310.183594 L 98.757812 227.71875 L 106.554688 202.042969 L 109.488281 211.875 L 115.519531 232.0625 C 117.605469 246.292969 121.636719 273.824219 123.035156 283.859375 L 116.738281 313.15625 Z M 174.070312 271.886719 L 164.707031 222.066406 L 160.847656 295.925781 L 144.835938 303.882812 L 118.523438 316.960938 L 121.078125 305.078125 L 141.597656 209.644531 L 141.785156 208.761719 C 141.785156 208.757812 141.785156 208.757812 141.785156 208.757812 L 141.871094 208.359375 L 141.710938 207.988281 L 127.550781 175.128906 L 138.859375 183.890625 L 169.078125 207.308594 L 178.226562 258.203125 Z M 260.226562 257.003906 L 270.117188 214.6875 L 248.683594 257.003906 L 193.457031 257.003906 L 172.367188 211.207031 L 171.410156 205.890625 L 140.191406 181.699219 C 142.894531 177.449219 154.484375 160.203125 167.808594 154.671875 L 164.753906 164.179688 L 166.921875 170.335938 L 177.492188 200.414062 L 178.527344 203.351562 L 185.042969 221.886719 L 188.46875 214.820312 L 188.40625 215.171875 L 188.710938 214.78125 L 189.023438 214.375 L 216.824219 178.507812 L 212.9375 164.539062 C 212.9375 164.539062 252.671875 153.898438 255.078125 142.945312 C 264.132812 149.359375 273.855469 161.355469 282.304688 176.847656 C 285.238281 182.226562 287.957031 187.925781 290.457031 193.863281 C 285.347656 195.660156 265.203125 203.179688 251.117188 214.6875 C 234.875 227.960938 211.636719 222.066406 211.636719 222.066406 L 211.636719 223.289062 C 211.636719 223.289062 237.425781 234.585938 255.574219 222.066406 C 271.15625 211.324219 290.617188 208.585938 295.824219 208.023438 C 301.089844 223.5 304.886719 240.15625 306.898438 257.003906 Z M 194.691406 101.105469 L 200.304688 101.105469 C 200.304688 101.105469 199.988281 101.683594 199.441406 102.433594 C 198.660156 103.503906 197.402344 104.933594 195.882812 105.570312 C 193.277344 106.667969 188.847656 106.53125 186.457031 106.449219 C 185.945312 106.429688 185.519531 106.414062 185.234375 106.414062 C 185.523438 105.117188 186.492188 103.140625 187.085938 102 C 187.371094 101.460938 187.570312 101.105469 187.570312 101.105469 Z M 186.148438 98.6875 L 183.535156 93.457031 L 198.410156 91.121094 L 204.550781 98.980469 L 201.5625 97.222656 L 198.410156 95.367188 L 186.292969 98.980469 Z M 186.148438 98.6875 " fill-opacity="1" fill-rule="nonzero"/><g clip-path="url(#42e19831a6)"><path fill="#003024" d="M 0 264.378906 L 374.949219 264.378906 L 374.949219 364.046875 L 0 364.046875 Z M 0 264.378906 " fill-opacity="1" fill-rule="nonzero"/></g><g clip-path="url(#a3c65da93c)"><path fill="#ffffff" d="M 0 264.378906 L 374.949219 264.378906 L 374.949219 364.046875 L 0 364.046875 Z M 0 264.378906 " fill-opacity="1" fill-rule="nonzero"/></g><g fill="#ffffff" fill-opacity="1"><g transform="translate(88.442068, 338.521887)"><g><path d="M 3.5625 -8.703125 L 0.328125 -8.703125 L 0.328125 -10.5 L 9.3125 -10.5 L 9.3125 -8.703125 L 6.09375 -8.703125 L 6.09375 0 L 3.5625 0 Z M 3.5625 -8.703125 "/></g></g></g><g fill="#ffffff" fill-opacity="1"><g transform="translate(98.939081, 338.521887)"><g><path d="M 1.09375 -10.671875 L 3.46875 -10.671875 L 3.46875 -8.75 L 1.09375 -8.75 Z M 1.09375 -7.828125 L 3.46875 -7.828125 L 3.46875 0 L 1.09375 0 Z M 1.09375 -7.828125 "/></g></g></g><g fill="#ffffff" fill-opacity="1"><g transform="translate(104.374092, 338.521887)"><g><path d="M 4.96875 0.15625 C 2.195312 0.15625 0.8125 -0.6875 0.8125 -2.375 L 0.8125 -5.203125 C 0.8125 -6.179688 1.125 -6.890625 1.75 -7.328125 C 2.382812 -7.773438 3.359375 -8 4.671875 -8 C 5.921875 -8 6.832031 -7.785156 7.40625 -7.359375 C 7.976562 -6.929688 8.265625 -6.210938 8.265625 -5.203125 L 8.265625 -3.28125 L 3.1875 -3.28125 L 3.1875 -2.578125 C 3.1875 -2.117188 3.347656 -1.789062 3.671875 -1.59375 C 3.992188 -1.40625 4.578125 -1.3125 5.421875 -1.3125 C 6.203125 -1.3125 7.078125 -1.425781 8.046875 -1.65625 L 8.046875 -0.140625 C 7.085938 0.0546875 6.0625 0.15625 4.96875 0.15625 Z M 6.015625 -4.625 L 6.015625 -5.765625 C 6.015625 -6.023438 5.910156 -6.21875 5.703125 -6.34375 C 5.492188 -6.476562 5.140625 -6.546875 4.640625 -6.546875 C 4.066406 -6.546875 3.6875 -6.476562 3.5 -6.34375 C 3.289062 -6.207031 3.1875 -6.015625 3.1875 -5.765625 L 3.1875 -4.625 Z M 6.015625 -4.625 "/></g></g></g><g fill="#ffffff" fill-opacity="1"><g transform="translate(114.288891, 338.521887)"><g><path d="M 1.03125 -7.828125 L 3.359375 -7.828125 L 3.359375 -6.875 C 3.546875 -7.625 4.382812 -8 5.875 -8 C 6.875 -8 7.578125 -7.816406 7.984375 -7.453125 C 8.390625 -7.085938 8.59375 -6.519531 8.59375 -5.75 L 8.59375 0 L 6.234375 0 L 6.234375 -5.4375 C 6.234375 -5.738281 6.203125 -5.960938 6.140625 -6.109375 C 6.078125 -6.265625 5.957031 -6.375 5.78125 -6.4375 C 5.601562 -6.507812 5.332031 -6.546875 4.96875 -6.546875 C 4.507812 -6.546875 4.171875 -6.515625 3.953125 -6.453125 C 3.734375 -6.390625 3.585938 -6.28125 3.515625 -6.125 C 3.441406 -5.976562 3.40625 -5.75 3.40625 -5.4375 L 3.40625 0 L 1.03125 0 Z M 1.03125 -7.828125 "/></g></g></g><g fill="#ffffff" fill-opacity="1"><g transform="translate(124.785904, 338.521887)"><g><path d="M 4.046875 0.15625 C 3.117188 0.15625 2.429688 0.0859375 1.984375 -0.046875 C 1.546875 -0.179688 1.238281 -0.4375 1.0625 -0.8125 C 0.894531 -1.1875 0.8125 -1.773438 0.8125 -2.578125 L 0.8125 -5.640625 C 0.8125 -6.492188 1.054688 -7.097656 1.546875 -7.453125 C 2.035156 -7.816406 2.832031 -8 3.9375 -8 C 4.445312 -8 4.847656 -7.96875 5.140625 -7.90625 C 5.441406 -7.84375 5.6875 -7.738281 5.875 -7.59375 C 6.0625 -7.445312 6.25 -7.234375 6.4375 -6.953125 L 6.4375 -11.328125 L 8.8125 -11.328125 L 8.8125 0 L 6.53125 0 L 6.53125 -0.890625 C 6.332031 -0.578125 6.15625 -0.359375 6 -0.234375 C 5.84375 -0.109375 5.625 -0.015625 5.34375 0.046875 C 5.050781 0.117188 4.617188 0.15625 4.046875 0.15625 Z M 4.640625 -1.3125 C 5.171875 -1.3125 5.5625 -1.335938 5.8125 -1.390625 C 6.0625 -1.441406 6.226562 -1.539062 6.3125 -1.6875 C 6.394531 -1.832031 6.4375 -2.050781 6.4375 -2.34375 L 6.4375 -5.5 C 6.4375 -5.769531 6.390625 -5.976562 6.296875 -6.125 C 6.210938 -6.269531 6.050781 -6.375 5.8125 -6.4375 C 5.582031 -6.507812 5.238281 -6.546875 4.78125 -6.546875 C 4.28125 -6.546875 3.921875 -6.515625 3.703125 -6.453125 C 3.492188 -6.390625 3.351562 -6.285156 3.28125 -6.140625 C 3.207031 -5.992188 3.171875 -5.753906 3.171875 -5.421875 L 3.171875 -2.421875 C 3.171875 -2.117188 3.207031 -1.890625 3.28125 -1.734375 C 3.351562 -1.578125 3.488281 -1.46875 3.6875 -1.40625 C 3.894531 -1.34375 4.210938 -1.3125 4.640625 -1.3125 Z M 4.640625 -1.3125 "/></g></g></g><g fill="#ffffff" fill-opacity="1"><g transform="translate(135.493153, 338.521887)"><g><path d="M 3.25 0.15625 C 2.519531 0.15625 1.972656 0.0859375 1.609375 -0.046875 C 1.242188 -0.179688 0.988281 -0.421875 0.84375 -0.765625 C 0.695312 -1.117188 0.625 -1.644531 0.625 -2.34375 C 0.625 -2.96875 0.703125 -3.457031 0.859375 -3.8125 C 1.015625 -4.175781 1.269531 -4.4375 1.625 -4.59375 C 1.976562 -4.75 2.460938 -4.828125 3.078125 -4.828125 L 5.734375 -4.828125 L 5.734375 -5.359375 C 5.734375 -5.691406 5.6875 -5.9375 5.59375 -6.09375 C 5.5 -6.257812 5.332031 -6.375 5.09375 -6.4375 C 4.851562 -6.507812 4.488281 -6.546875 4 -6.546875 C 3.332031 -6.546875 2.414062 -6.476562 1.25 -6.34375 L 1.25 -7.828125 C 2.101562 -7.941406 3.097656 -8 4.234375 -8 C 5.242188 -8 6.019531 -7.921875 6.5625 -7.765625 C 7.101562 -7.617188 7.492188 -7.359375 7.734375 -6.984375 C 7.972656 -6.617188 8.09375 -6.085938 8.09375 -5.390625 L 8.09375 0 L 5.78125 0 L 5.78125 -0.71875 C 5.59375 -0.40625 5.34375 -0.179688 5.03125 -0.046875 C 4.71875 0.0859375 4.125 0.15625 3.25 0.15625 Z M 4.171875 -1.3125 C 4.648438 -1.3125 4.992188 -1.328125 5.203125 -1.359375 C 5.347656 -1.378906 5.445312 -1.410156 5.5 -1.453125 C 5.5625 -1.492188 5.617188 -1.566406 5.671875 -1.671875 C 5.710938 -1.742188 5.734375 -1.851562 5.734375 -2 L 5.734375 -3.53125 L 4.109375 -3.53125 C 3.742188 -3.53125 3.484375 -3.503906 3.328125 -3.453125 C 3.179688 -3.410156 3.082031 -3.316406 3.03125 -3.171875 C 2.976562 -3.023438 2.953125 -2.765625 2.953125 -2.390625 C 2.953125 -2.035156 2.976562 -1.785156 3.03125 -1.640625 C 3.082031 -1.503906 3.1875 -1.414062 3.34375 -1.375 C 3.5 -1.332031 3.773438 -1.3125 4.171875 -1.3125 Z M 4.171875 -1.3125 "/></g></g></g><g fill="#ffffff" fill-opacity="1"><g transform="translate(145.488804, 338.521887)"><g/></g></g><g fill="#ffffff" fill-opacity="1"><g transform="translate(150.082833, 338.521887)"><g><path d="M 1.09375 -10.671875 L 3.46875 -10.671875 L 3.46875 -8.75 L 1.09375 -8.75 Z M 1.09375 -7.828125 L 3.46875 -7.828125 L 3.46875 0 L 1.09375 0 Z M 1.09375 -7.828125 "/></g></g></g><g fill="#ffffff" fill-opacity="1"><g transform="translate(155.517845, 338.521887)"><g><path d="M 1.03125 -7.828125 L 3.359375 -7.828125 L 3.359375 -6.875 C 3.546875 -7.625 4.382812 -8 5.875 -8 C 6.875 -8 7.578125 -7.816406 7.984375 -7.453125 C 8.390625 -7.085938 8.59375 -6.519531 8.59375 -5.75 L 8.59375 0 L 6.234375 0 L 6.234375 -5.4375 C 6.234375 -5.738281 6.203125 -5.960938 6.140625 -6.109375 C 6.078125 -6.265625 5.957031 -6.375 5.78125 -6.4375 C 5.601562 -6.507812 5.332031 -6.546875 4.96875 -6.546875 C 4.507812 -6.546875 4.171875 -6.515625 3.953125 -6.453125 C 3.734375 -6.390625 3.585938 -6.28125 3.515625 -6.125 C 3.441406 -5.976562 3.40625 -5.75 3.40625 -5.4375 L 3.40625 0 L 1.03125 0 Z M 1.03125 -7.828125 "/></g></g></g><g fill="#ffffff" fill-opacity="1"><g transform="translate(166.014853, 338.521887)"><g><path d="M 1.640625 -6.375 L 0.15625 -6.375 L 0.15625 -7.828125 L 1.640625 -7.828125 L 1.640625 -9.015625 C 1.640625 -9.648438 1.742188 -10.148438 1.953125 -10.515625 C 2.160156 -10.878906 2.484375 -11.132812 2.921875 -11.28125 C 3.359375 -11.425781 3.941406 -11.5 4.671875 -11.5 C 5.078125 -11.5 5.664062 -11.453125 6.4375 -11.359375 L 6.4375 -9.90625 C 5.75 -9.988281 5.285156 -10.03125 5.046875 -10.03125 C 4.648438 -10.03125 4.375 -9.96875 4.21875 -9.84375 C 4.070312 -9.71875 4 -9.484375 4 -9.140625 L 4 -7.828125 L 6.15625 -7.828125 L 6.15625 -6.375 L 4 -6.375 L 4 0 L 1.640625 0 Z M 1.640625 -6.375 "/></g></g></g><g fill="#ffffff" fill-opacity="1"><g transform="translate(173.164144, 338.521887)"><g><path d="M 4.796875 0.15625 C 4.304688 0.15625 3.90625 0.140625 3.59375 0.109375 C 3.28125 0.078125 2.945312 0.015625 2.59375 -0.078125 C 2.195312 -0.191406 1.878906 -0.347656 1.640625 -0.546875 C 1.410156 -0.742188 1.210938 -1.023438 1.046875 -1.390625 C 0.890625 -1.742188 0.8125 -2.175781 0.8125 -2.6875 L 0.8125 -5 C 0.8125 -5.519531 0.890625 -5.972656 1.046875 -6.359375 C 1.210938 -6.742188 1.425781 -7.046875 1.6875 -7.265625 C 1.90625 -7.453125 2.203125 -7.609375 2.578125 -7.734375 C 2.953125 -7.859375 3.316406 -7.9375 3.671875 -7.96875 C 4.085938 -7.988281 4.460938 -8 4.796875 -8 C 5.285156 -8 5.675781 -7.984375 5.96875 -7.953125 C 6.269531 -7.929688 6.597656 -7.863281 6.953125 -7.75 C 7.347656 -7.632812 7.664062 -7.472656 7.90625 -7.265625 C 8.144531 -7.054688 8.351562 -6.765625 8.53125 -6.390625 C 8.695312 -6.003906 8.78125 -5.539062 8.78125 -5 L 8.78125 -2.6875 C 8.78125 -2.195312 8.695312 -1.769531 8.53125 -1.40625 C 8.375 -1.039062 8.175781 -0.753906 7.9375 -0.546875 C 7.71875 -0.367188 7.421875 -0.222656 7.046875 -0.109375 C 6.671875 0.00390625 6.304688 0.078125 5.953125 0.109375 C 5.628906 0.140625 5.242188 0.15625 4.796875 0.15625 Z M 4.796875 -1.3125 C 5.234375 -1.3125 5.566406 -1.34375 5.796875 -1.40625 C 6.023438 -1.476562 6.179688 -1.585938 6.265625 -1.734375 C 6.359375 -1.890625 6.40625 -2.113281 6.40625 -2.40625 L 6.40625 -5.375 C 6.40625 -5.800781 6.289062 -6.101562 6.0625 -6.28125 C 5.84375 -6.457031 5.421875 -6.546875 4.796875 -6.546875 C 4.171875 -6.546875 3.742188 -6.457031 3.515625 -6.28125 C 3.285156 -6.101562 3.171875 -5.800781 3.171875 -5.375 L 3.171875 -2.40625 C 3.171875 -2.113281 3.21875 -1.890625 3.3125 -1.734375 C 3.40625 -1.585938 3.5625 -1.476562 3.78125 -1.40625 C 4.007812 -1.34375 4.347656 -1.3125 4.796875 -1.3125 Z M 4.796875 -1.3125 "/></g></g></g><g fill="#ffffff" fill-opacity="1"><g transform="translate(183.612637, 338.521887)"><g><path d="M 1.03125 -7.828125 L 3.28125 -7.828125 L 3.28125 -6.453125 C 3.28125 -6.703125 3.382812 -6.945312 3.59375 -7.1875 C 3.800781 -7.425781 4.0625 -7.617188 4.375 -7.765625 C 4.695312 -7.921875 5.015625 -8 5.328125 -8 L 6.171875 -8 L 6.171875 -6.03125 L 5.359375 -6.03125 C 4.691406 -6.03125 4.195312 -5.925781 3.875 -5.71875 C 3.5625 -5.519531 3.40625 -5.179688 3.40625 -4.703125 L 3.40625 0 L 1.03125 0 Z M 1.03125 -7.828125 "/></g></g></g><g fill="#ffffff" fill-opacity="1"><g transform="translate(190.907473, 338.521887)"><g><path d="M 1.03125 -7.828125 L 3.40625 -7.828125 L 3.40625 -6.875 C 3.550781 -7.625 4.320312 -8 5.71875 -8 C 6.445312 -8 7 -7.90625 7.375 -7.71875 C 7.757812 -7.53125 8.015625 -7.234375 8.140625 -6.828125 C 8.273438 -7.242188 8.523438 -7.539062 8.890625 -7.71875 C 9.265625 -7.90625 9.832031 -8 10.59375 -8 C 11.269531 -8 11.789062 -7.921875 12.15625 -7.765625 C 12.519531 -7.609375 12.773438 -7.367188 12.921875 -7.046875 C 13.066406 -6.722656 13.140625 -6.289062 13.140625 -5.75 L 13.140625 0 L 10.78125 0 L 10.78125 -5.421875 C 10.78125 -5.765625 10.757812 -6.007812 10.71875 -6.15625 C 10.675781 -6.300781 10.582031 -6.398438 10.4375 -6.453125 C 10.289062 -6.515625 10.039062 -6.546875 9.6875 -6.546875 C 9.238281 -6.546875 8.921875 -6.515625 8.734375 -6.453125 C 8.546875 -6.398438 8.421875 -6.300781 8.359375 -6.15625 C 8.296875 -6.007812 8.265625 -5.765625 8.265625 -5.421875 L 8.265625 0 L 5.90625 0 L 5.90625 -5.421875 C 5.90625 -5.765625 5.882812 -6.007812 5.84375 -6.15625 C 5.800781 -6.300781 5.707031 -6.398438 5.5625 -6.453125 C 5.414062 -6.515625 5.164062 -6.546875 4.8125 -6.546875 C 4.363281 -6.546875 4.046875 -6.515625 3.859375 -6.453125 C 3.671875 -6.398438 3.546875 -6.300781 3.484375 -6.15625 C 3.429688 -6.007812 3.40625 -5.765625 3.40625 -5.421875 L 3.40625 0 L 1.03125 0 Z M 1.03125 -7.828125 "/></g></g></g><g fill="#ffffff" fill-opacity="1"><g transform="translate(205.948961, 338.521887)"><g><path d="M 3.25 0.15625 C 2.519531 0.15625 1.972656 0.0859375 1.609375 -0.046875 C 1.242188 -0.179688 0.988281 -0.421875 0.84375 -0.765625 C 0.695312 -1.117188 0.625 -1.644531 0.625 -2.34375 C 0.625 -2.96875 0.703125 -3.457031 0.859375 -3.8125 C 1.015625 -4.175781 1.269531 -4.4375 1.625 -4.59375 C 1.976562 -4.75 2.460938 -4.828125 3.078125 -4.828125 L 5.734375 -4.828125 L 5.734375 -5.359375 C 5.734375 -5.691406 5.6875 -5.9375 5.59375 -6.09375 C 5.5 -6.257812 5.332031 -6.375 5.09375 -6.4375 C 4.851562 -6.507812 4.488281 -6.546875 4 -6.546875 C 3.332031 -6.546875 2.414062 -6.476562 1.25 -6.34375 L 1.25 -7.828125 C 2.101562 -7.941406 3.097656 -8 4.234375 -8 C 5.242188 -8 6.019531 -7.921875 6.5625 -7.765625 C 7.101562 -7.617188 7.492188 -7.359375 7.734375 -6.984375 C 7.972656 -6.617188 8.09375 -6.085938 8.09375 -5.390625 L 8.09375 0 L 5.78125 0 L 5.78125 -0.71875 C 5.59375 -0.40625 5.34375 -0.179688 5.03125 -0.046875 C 4.71875 0.0859375 4.125 0.15625 3.25 0.15625 Z M 4.171875 -1.3125 C 4.648438 -1.3125 4.992188 -1.328125 5.203125 -1.359375 C 5.347656 -1.378906 5.445312 -1.410156 5.5 -1.453125 C 5.5625 -1.492188 5.617188 -1.566406 5.671875 -1.671875 C 5.710938 -1.742188 5.734375 -1.851562 5.734375 -2 L 5.734375 -3.53125 L 4.109375 -3.53125 C 3.742188 -3.53125 3.484375 -3.503906 3.328125 -3.453125 C 3.179688 -3.410156 3.082031 -3.316406 3.03125 -3.171875 C 2.976562 -3.023438 2.953125 -2.765625 2.953125 -2.390625 C 2.953125 -2.035156 2.976562 -1.785156 3.03125 -1.640625 C 3.082031 -1.503906 3.1875 -1.414062 3.34375 -1.375 C 3.5 -1.332031 3.773438 -1.3125 4.171875 -1.3125 Z M 5.140625 -11 L 7.703125 -11 L 5.6875 -8.953125 L 3.671875 -8.953125 Z M 5.140625 -11 "/></g></g></g><g fill="#ffffff" fill-opacity="1"><g transform="translate(215.944609, 338.521887)"><g><path d="M 4.953125 0.15625 C 4.554688 0.15625 4.222656 0.140625 3.953125 0.109375 C 3.679688 0.078125 3.410156 0.015625 3.140625 -0.078125 C 2.835938 -0.179688 2.59375 -0.316406 2.40625 -0.484375 C 2.21875 -0.660156 2.0625 -0.898438 1.9375 -1.203125 C 1.8125 -1.515625 1.75 -1.875 1.75 -2.28125 L 1.75 -6.375 L 0.15625 -6.375 L 0.15625 -7.828125 L 1.75 -7.828125 L 1.75 -10.09375 L 4.109375 -10.09375 L 4.109375 -7.828125 L 6.265625 -7.828125 L 6.265625 -6.375 L 4.109375 -6.375 L 4.109375 -2.6875 C 4.109375 -2.3125 4.140625 -2.023438 4.203125 -1.828125 C 4.273438 -1.640625 4.398438 -1.503906 4.578125 -1.421875 C 4.765625 -1.347656 5.046875 -1.3125 5.421875 -1.3125 C 5.578125 -1.3125 5.859375 -1.335938 6.265625 -1.390625 L 6.265625 0.078125 C 5.753906 0.128906 5.316406 0.15625 4.953125 0.15625 Z M 4.953125 0.15625 "/></g></g></g><g fill="#ffffff" fill-opacity="1"><g transform="translate(223.401184, 338.521887)"><g><path d="M 1.09375 -10.671875 L 3.46875 -10.671875 L 3.46875 -8.75 L 1.09375 -8.75 Z M 1.09375 -7.828125 L 3.46875 -7.828125 L 3.46875 0 L 1.09375 0 Z M 1.09375 -7.828125 "/></g></g></g><g fill="#ffffff" fill-opacity="1"><g transform="translate(228.836191, 338.521887)"><g><path d="M 4.859375 0.15625 C 4.441406 0.15625 4.113281 0.144531 3.875 0.125 C 3.644531 0.113281 3.359375 0.0859375 3.015625 0.046875 C 2.671875 0.00390625 2.382812 -0.0664062 2.15625 -0.171875 C 1.9375 -0.285156 1.707031 -0.445312 1.46875 -0.65625 C 1.03125 -1.03125 0.8125 -1.660156 0.8125 -2.546875 L 0.8125 -5.140625 C 0.8125 -5.859375 0.972656 -6.453125 1.296875 -6.921875 C 1.410156 -7.097656 1.582031 -7.257812 1.8125 -7.40625 C 2.050781 -7.550781 2.289062 -7.664062 2.53125 -7.75 C 2.71875 -7.8125 2.972656 -7.863281 3.296875 -7.90625 C 3.617188 -7.957031 3.90625 -7.988281 4.15625 -8 L 5.015625 -8 C 5.617188 -8 6.410156 -7.898438 7.390625 -7.703125 L 7.390625 -6.15625 C 6.285156 -6.414062 5.4375 -6.546875 4.84375 -6.546875 C 3.75 -6.546875 3.203125 -6.175781 3.203125 -5.4375 L 3.203125 -2.5625 C 3.203125 -1.726562 3.800781 -1.3125 5 -1.3125 C 5.582031 -1.3125 6.421875 -1.429688 7.515625 -1.671875 L 7.515625 -0.109375 C 6.523438 0.0664062 5.640625 0.15625 4.859375 0.15625 Z M 4.859375 0.15625 "/></g></g></g><g fill="#ffffff" fill-opacity="1"><g transform="translate(237.50569, 338.521887)"><g><path d="M 3.25 0.15625 C 2.519531 0.15625 1.972656 0.0859375 1.609375 -0.046875 C 1.242188 -0.179688 0.988281 -0.421875 0.84375 -0.765625 C 0.695312 -1.117188 0.625 -1.644531 0.625 -2.34375 C 0.625 -2.96875 0.703125 -3.457031 0.859375 -3.8125 C 1.015625 -4.175781 1.269531 -4.4375 1.625 -4.59375 C 1.976562 -4.75 2.460938 -4.828125 3.078125 -4.828125 L 5.734375 -4.828125 L 5.734375 -5.359375 C 5.734375 -5.691406 5.6875 -5.9375 5.59375 -6.09375 C 5.5 -6.257812 5.332031 -6.375 5.09375 -6.4375 C 4.851562 -6.507812 4.488281 -6.546875 4 -6.546875 C 3.332031 -6.546875 2.414062 -6.476562 1.25 -6.34375 L 1.25 -7.828125 C 2.101562 -7.941406 3.097656 -8 4.234375 -8 C 5.242188 -8 6.019531 -7.921875 6.5625 -7.765625 C 7.101562 -7.617188 7.492188 -7.359375 7.734375 -6.984375 C 7.972656 -6.617188 8.09375 -6.085938 8.09375 -5.390625 L 8.09375 0 L 5.78125 0 L 5.78125 -0.71875 C 5.59375 -0.40625 5.34375 -0.179688 5.03125 -0.046875 C 4.71875 0.0859375 4.125 0.15625 3.25 0.15625 Z M 4.171875 -1.3125 C 4.648438 -1.3125 4.992188 -1.328125 5.203125 -1.359375 C 5.347656 -1.378906 5.445312 -1.410156 5.5 -1.453125 C 5.5625 -1.492188 5.617188 -1.566406 5.671875 -1.671875 C 5.710938 -1.742188 5.734375 -1.851562 5.734375 -2 L 5.734375 -3.53125 L 4.109375 -3.53125 C 3.742188 -3.53125 3.484375 -3.503906 3.328125 -3.453125 C 3.179688 -3.410156 3.082031 -3.316406 3.03125 -3.171875 C 2.976562 -3.023438 2.953125 -2.765625 2.953125 -2.390625 C 2.953125 -2.035156 2.976562 -1.785156 3.03125 -1.640625 C 3.082031 -1.503906 3.1875 -1.414062 3.34375 -1.375 C 3.5 -1.332031 3.773438 -1.3125 4.171875 -1.3125 Z M 4.171875 -1.3125 "/></g></g></g><g fill="#ffffff" fill-opacity="1"><g transform="translate(247.501337, 338.521887)"><g/></g></g><g fill="#ffffff" fill-opacity="1"><g transform="translate(252.095362, 338.521887)"><g><path d="M 1.140625 -10.5 L 5.34375 -10.5 C 6.363281 -10.5 7.171875 -10.425781 7.765625 -10.28125 C 8.367188 -10.144531 8.804688 -9.898438 9.078125 -9.546875 C 9.359375 -9.203125 9.5 -8.71875 9.5 -8.09375 L 9.5 -6.109375 C 9.5 -5.410156 9.347656 -4.867188 9.046875 -4.484375 C 8.753906 -4.097656 8.285156 -3.820312 7.640625 -3.65625 C 7.003906 -3.5 6.140625 -3.421875 5.046875 -3.421875 L 3.65625 -3.421875 L 3.65625 0 L 1.140625 0 Z M 5.265625 -5.140625 C 5.921875 -5.140625 6.382812 -5.21875 6.65625 -5.375 C 6.925781 -5.53125 7.0625 -5.800781 7.0625 -6.1875 L 7.0625 -7.859375 C 7.0625 -8.210938 6.929688 -8.441406 6.671875 -8.546875 C 6.421875 -8.648438 5.941406 -8.703125 5.234375 -8.703125 L 3.65625 -8.703125 L 3.65625 -5.140625 Z M 5.265625 -5.140625 "/></g></g></g><g fill="#ffffff" fill-opacity="1"><g transform="translate(263.10989, 338.521887)"><g><path d="M 1.140625 -10.5 L 5.859375 -10.5 C 7.265625 -10.5 8.28125 -10.328125 8.90625 -9.984375 C 9.53125 -9.648438 9.84375 -9.082031 9.84375 -8.28125 L 9.84375 -6.4375 C 9.84375 -5.820312 9.625 -5.335938 9.1875 -4.984375 C 8.75 -4.640625 8.171875 -4.421875 7.453125 -4.328125 L 10.484375 0 L 7.578125 0 L 4.828125 -4.125 L 3.65625 -4.125 L 3.65625 0 L 1.140625 0 Z M 5.828125 -5.796875 C 6.421875 -5.796875 6.820312 -5.875 7.03125 -6.03125 C 7.25 -6.1875 7.359375 -6.488281 7.359375 -6.9375 L 7.359375 -7.6875 C 7.359375 -8.070312 7.242188 -8.335938 7.015625 -8.484375 C 6.785156 -8.628906 6.390625 -8.703125 5.828125 -8.703125 L 3.65625 -8.703125 L 3.65625 -5.796875 Z M 5.828125 -5.796875 "/></g></g></g><g fill="#ffffff" fill-opacity="1"><g transform="translate(274.787485, 338.521887)"><g><path d="M 5.875 0.15625 C 5.289062 0.15625 4.753906 0.117188 4.265625 0.046875 C 3.773438 -0.0234375 3.265625 -0.15625 2.734375 -0.34375 C 2.160156 -0.53125 1.710938 -0.84375 1.390625 -1.28125 C 1.066406 -1.71875 0.90625 -2.25 0.90625 -2.875 L 0.90625 -7.484375 C 0.90625 -7.992188 1.019531 -8.453125 1.25 -8.859375 C 1.488281 -9.273438 1.789062 -9.601562 2.15625 -9.84375 C 2.476562 -10.050781 2.875 -10.222656 3.34375 -10.359375 C 3.820312 -10.503906 4.265625 -10.59375 4.671875 -10.625 C 5.054688 -10.65625 5.457031 -10.671875 5.875 -10.671875 C 6.375 -10.671875 6.804688 -10.648438 7.171875 -10.609375 C 7.535156 -10.566406 7.945312 -10.488281 8.40625 -10.375 C 8.914062 -10.226562 9.335938 -10.046875 9.671875 -9.828125 C 10.015625 -9.609375 10.296875 -9.304688 10.515625 -8.921875 C 10.753906 -8.523438 10.875 -8.046875 10.875 -7.484375 L 10.875 -2.875 C 10.875 -2.289062 10.71875 -1.789062 10.40625 -1.375 C 10.101562 -0.957031 9.679688 -0.640625 9.140625 -0.421875 C 8.171875 -0.0351562 7.082031 0.15625 5.875 0.15625 Z M 5.90625 -1.640625 C 6.257812 -1.640625 6.554688 -1.648438 6.796875 -1.671875 C 7.046875 -1.703125 7.300781 -1.753906 7.5625 -1.828125 C 7.820312 -1.898438 8.019531 -2.023438 8.15625 -2.203125 C 8.289062 -2.390625 8.359375 -2.613281 8.359375 -2.875 L 8.359375 -7.5 C 8.359375 -7.988281 8.15625 -8.335938 7.75 -8.546875 C 7.351562 -8.765625 6.734375 -8.875 5.890625 -8.875 C 5.046875 -8.875 4.425781 -8.769531 4.03125 -8.5625 C 3.632812 -8.351562 3.4375 -8 3.4375 -7.5 L 3.4375 -2.875 C 3.4375 -2.613281 3.503906 -2.390625 3.640625 -2.203125 C 3.785156 -2.023438 3.988281 -1.898438 4.25 -1.828125 C 4.507812 -1.753906 4.757812 -1.703125 5 -1.671875 C 5.25 -1.648438 5.550781 -1.640625 5.90625 -1.640625 Z M 5.90625 -1.640625 "/></g></g></g><g fill="#00ffb0" fill-opacity="1"><g transform="translate(27.027462, 314.366639)"><g><path d="M 14.34375 0 L 3.015625 0 L 3.015625 -27.015625 L 14.34375 -27.015625 Z M 14.34375 0 "/></g></g></g><g fill="#00ffb0" fill-opacity="1"><g transform="translate(44.381634, 314.366639)"><g><path d="M 43.09375 0 L 29.625 0 L 14.34375 -18.28125 L 14.34375 0 L 3.015625 0 L 3.015625 -27.015625 L 16.5 -27.015625 L 31.765625 -8.828125 L 31.765625 -27.015625 L 43.09375 -27.015625 Z M 43.09375 0 "/></g></g></g><g fill="#00ffb0" fill-opacity="1"><g transform="translate(90.477477, 314.366639)"><g><path d="M 14.34375 0 L 3.015625 0 L 3.015625 -27.015625 L 34.0625 -27.015625 L 34.0625 -20.328125 L 14.34375 -20.328125 L 14.34375 -16.09375 L 31.015625 -16.09375 L 31.015625 -10.90625 L 14.34375 -10.90625 Z M 14.34375 0 "/></g></g></g><g fill="#00ffb0" fill-opacity="1"><g transform="translate(126.032825, 314.366639)"><g><path d="M 20.4375 0.578125 C 13.75 0.578125 8.832031 -0.796875 5.6875 -3.546875 C 2.894531 -5.972656 1.5 -9.289062 1.5 -13.5 C 1.5 -17.695312 2.894531 -21.007812 5.6875 -23.4375 C 8.832031 -26.1875 13.75 -27.5625 20.4375 -27.5625 C 27.113281 -27.5625 32.023438 -26.1875 35.171875 -23.4375 C 37.960938 -21.007812 39.359375 -17.695312 39.359375 -13.5 C 39.359375 -9.289062 37.960938 -5.972656 35.171875 -3.546875 C 32.023438 -0.796875 27.113281 0.578125 20.4375 0.578125 Z M 20.4375 -6.671875 C 23.164062 -6.671875 25.171875 -7.453125 26.453125 -9.015625 C 27.484375 -10.285156 28 -11.78125 28 -13.5 C 28 -15.21875 27.484375 -16.707031 26.453125 -17.96875 C 25.171875 -19.539062 23.164062 -20.328125 20.4375 -20.328125 C 17.695312 -20.328125 15.679688 -19.539062 14.390625 -17.96875 C 13.359375 -16.707031 12.84375 -15.21875 12.84375 -13.5 C 12.84375 -11.78125 13.359375 -10.285156 14.390625 -9.015625 C 15.679688 -7.453125 17.695312 -6.671875 20.4375 -6.671875 Z M 20.4375 -6.671875 "/></g></g></g><g fill="#00ffb0" fill-opacity="1"><g transform="translate(166.877243, 314.366639)"><g><path d="M 20.4375 0.578125 C 13.75 0.578125 8.832031 -0.796875 5.6875 -3.546875 C 2.894531 -5.972656 1.5 -9.285156 1.5 -13.484375 C 1.5 -17.691406 2.894531 -21.007812 5.6875 -23.4375 C 8.832031 -26.1875 13.75 -27.5625 20.4375 -27.5625 C 24.238281 -27.5625 27.398438 -27.132812 29.921875 -26.28125 C 32.441406 -25.425781 34.421875 -24.257812 35.859375 -22.78125 C 37.296875 -21.3125 38.28125 -19.617188 38.8125 -17.703125 L 26.6875 -17.703125 C 25.414062 -19.441406 23.332031 -20.3125 20.4375 -20.3125 C 17.695312 -20.3125 15.679688 -19.53125 14.390625 -17.96875 C 13.359375 -16.695312 12.84375 -15.203125 12.84375 -13.484375 C 12.84375 -11.765625 13.359375 -10.273438 14.390625 -9.015625 C 15.679688 -7.453125 17.695312 -6.671875 20.4375 -6.671875 C 22.644531 -6.671875 24.300781 -6.859375 25.40625 -7.234375 C 26.519531 -7.617188 27.332031 -8.117188 27.84375 -8.734375 L 23.421875 -8.734375 L 23.421875 -13.484375 L 38.8125 -13.484375 L 38.8125 0.015625 L 34.09375 0.015625 L 33.140625 -2.59375 C 30.140625 -0.476562 25.90625 0.578125 20.4375 0.578125 Z M 20.4375 0.578125 "/></g></g></g><g fill="#00ffb0" fill-opacity="1"><g transform="translate(207.928706, 314.366639)"><g><path d="M 45.375 0 L 33.890625 0 L 31.34375 -4.421875 L 14.3125 -4.421875 L 11.765625 0 L 0.28125 0 L 17.5625 -27 L 28.09375 -27 Z M 27.53125 -11.109375 L 22.84375 -19.296875 L 18.125 -11.109375 Z M 27.53125 -11.109375 "/></g></g></g><g fill="#00ffb0" fill-opacity="1"><g transform="translate(253.572814, 314.366639)"><g><path d="M 54.375 0 L 43.046875 0 L 43.046875 -17.234375 L 32.90625 0 L 24.453125 0 L 14.34375 -17.234375 L 14.34375 0 L 3.015625 0 L 3.015625 -27.015625 L 16.46875 -27.015625 L 28.703125 -7.71875 L 40.890625 -27.015625 L 54.375 -27.015625 Z M 54.375 0 "/></g></g></g><g fill="#00ffb0" fill-opacity="1"><g transform="translate(310.943223, 314.366639)"><g><path d="M 35.546875 0 L 3.015625 0 L 3.015625 -27.015625 L 34.0625 -27.015625 L 34.0625 -20.328125 L 14.34375 -20.328125 L 14.34375 -16.09375 L 31.015625 -16.09375 L 31.015625 -10.90625 L 14.34375 -10.90625 L 14.34375 -6.6875 L 35.546875 -6.6875 Z M 35.546875 0 "/></g></g></g></svg>